<?xml version="1.0" standalone="no"?>
<svg xmlns:xlink="http://www.w3.org/1999/xlink" id="wave" style="transform:rotate(0deg); transition: 0.3s" viewBox="0 0 2725 500" version="1.1" xmlns="http://www.w3.org/2000/svg"><defs><linearGradient id="sw-gradient-0" x1="0" x2="0" y1="1" y2="0"><stop stop-color="rgba(119, 141, 169, 1)" offset="0%"/><stop stop-color="rgba(119, 141, 169, 1)" offset="100%"/></linearGradient></defs><path style="transform:translate(0, 0px); opacity:1" fill="url(#sw-gradient-0)" d="M0,98L80,155.2C160,212,320,327,480,334.8C640,343,800,245,960,171.5C1120,98,1280,49,1440,73.5C1600,98,1760,196,1920,261.3C2080,327,2240,359,2400,318.5C2560,278,2720,163,2880,98C3040,33,3200,16,3360,32.7C3520,49,3680,98,3840,163.3C4000,229,4160,310,4320,294C4480,278,4640,163,4800,163.3C4960,163,5120,278,5280,343C5440,408,5600,425,5760,424.7C5920,425,6080,408,6240,375.7C6400,343,6560,294,6720,253.2C6880,212,7040,180,7200,138.8C7360,98,7520,49,7680,49C7840,49,8000,98,8160,147C8320,196,8480,245,8640,253.2C8800,261,8960,229,9120,220.5C9280,212,9440,229,9600,236.8C9760,245,9920,245,10080,212.3C10240,180,10400,114,10560,106.2C10720,98,10880,147,11040,163.3C11200,180,11360,163,11440,155.2L11520,147L11520,490L11440,490C11360,490,11200,490,11040,490C10880,490,10720,490,10560,490C10400,490,10240,490,10080,490C9920,490,9760,490,9600,490C9440,490,9280,490,9120,490C8960,490,8800,490,8640,490C8480,490,8320,490,8160,490C8000,490,7840,490,7680,490C7520,490,7360,490,7200,490C7040,490,6880,490,6720,490C6560,490,6400,490,6240,490C6080,490,5920,490,5760,490C5600,490,5440,490,5280,490C5120,490,4960,490,4800,490C4640,490,4480,490,4320,490C4160,490,4000,490,3840,490C3680,490,3520,490,3360,490C3200,490,3040,490,2880,490C2720,490,2560,490,2400,490C2240,490,2080,490,1920,490C1760,490,1600,490,1440,490C1280,490,1120,490,960,490C800,490,640,490,480,490C320,490,160,490,80,490L0,490Z"/><defs><linearGradient id="sw-gradient-1" x1="0" x2="0" y1="1" y2="0"><stop stop-color="rgba(65, 90, 119, 1)" offset="0%"/><stop stop-color="rgba(65, 90, 119, 1)" offset="100%"/></linearGradient></defs><path style="transform:translate(0, 50px); opacity:0.9" fill="url(#sw-gradient-1)" d="M0,343L80,351.2C160,359,320,376,480,359.3C640,343,800,294,960,261.3C1120,229,1280,212,1440,245C1600,278,1760,359,1920,400.2C2080,441,2240,441,2400,416.5C2560,392,2720,343,2880,285.8C3040,229,3200,163,3360,187.8C3520,212,3680,327,3840,351.2C4000,376,4160,310,4320,285.8C4480,261,4640,278,4800,245C4960,212,5120,131,5280,147C5440,163,5600,278,5760,310.3C5920,343,6080,294,6240,285.8C6400,278,6560,310,6720,334.8C6880,359,7040,376,7200,351.2C7360,327,7520,261,7680,253.2C7840,245,8000,294,8160,277.7C8320,261,8480,180,8640,122.5C8800,65,8960,33,9120,24.5C9280,16,9440,33,9600,106.2C9760,180,9920,310,10080,318.5C10240,327,10400,212,10560,138.8C10720,65,10880,33,11040,24.5C11200,16,11360,33,11440,40.8L11520,49L11520,490L11440,490C11360,490,11200,490,11040,490C10880,490,10720,490,10560,490C10400,490,10240,490,10080,490C9920,490,9760,490,9600,490C9440,490,9280,490,9120,490C8960,490,8800,490,8640,490C8480,490,8320,490,8160,490C8000,490,7840,490,7680,490C7520,490,7360,490,7200,490C7040,490,6880,490,6720,490C6560,490,6400,490,6240,490C6080,490,5920,490,5760,490C5600,490,5440,490,5280,490C5120,490,4960,490,4800,490C4640,490,4480,490,4320,490C4160,490,4000,490,3840,490C3680,490,3520,490,3360,490C3200,490,3040,490,2880,490C2720,490,2560,490,2400,490C2240,490,2080,490,1920,490C1760,490,1600,490,1440,490C1280,490,1120,490,960,490C800,490,640,490,480,490C320,490,160,490,80,490L0,490Z"/></svg> 